<svg width="989" height="455" viewBox="0 0 989 455" fill="none" xmlns="http://www.w3.org/2000/svg">
<line x1="544.18" y1="398.489" x2="92.1802" y2="453.186" stroke="#FD9900" stroke-width="3"/>
<g filter="url(#filter0_d)">
<line y1="-8.30292" x2="77.0853" y2="-8.30292" transform="matrix(-8.73517e-08 -1 -1 8.74939e-08 535.993 91.7666)" stroke="#B34A0A" stroke-width="16.6058"/>
<path d="M523.856 263.946H569.245L580.592 279.454L574.513 341.487H518.587L512.508 279.454L523.856 263.946Z" fill="#B34A0A"/>
<path d="M514.771 374.24C520.803 374.24 522.312 375.696 524.574 378.607C526.836 381.519 529.099 399.715 544.181 399.715C553.65 399.715 559.263 390.253 559.263 385.158C559.263 366.962 535.131 362.595 535.131 362.595V341.487H553.984V354.588C553.984 354.588 580.378 362.595 578.869 387.342C577.408 411.319 553.452 415.56 549.704 415.976C542.232 416.806 540.571 416.501 533.929 414.315C529.456 412.844 526.456 410.164 524.796 408.503C523.135 406.843 521.392 403.445 520.049 399.715C518.873 396.449 518.541 390.981 518.541 390.981C518.541 390.981 518.064 386.545 517.033 383.702C516.002 380.86 512.508 379.335 512.508 377.152C512.508 376.253 512.821 375.537 513.262 374.968C513.704 374.4 514.771 374.24 514.771 374.24Z" fill="#B34A0A"/>
<line y1="-4.15146" x2="99.3497" y2="-4.15146" transform="matrix(-0.36772 0.929937 -0.931558 -0.363593 592.993 173)" stroke="#B34A0A" stroke-width="8.30292"/>
<line y1="-4.15146" x2="99.3497" y2="-4.15146" transform="matrix(0.36772 0.929937 0.931558 -0.363593 500 173)" stroke="#B34A0A" stroke-width="8.30292"/>
<path d="M722.903 8.30295L-248.697 8.30295V99.6351L809.68 99.6351L722.903 8.30295Z" stroke="#B34A0A" stroke-width="16.6058"/>
<line y1="-8.30292" x2="111.2" y2="-8.30292" transform="matrix(-0.707253 -0.706961 -0.707253 0.706961 451.192 97.9341)" stroke="#B34A0A" stroke-width="16.6058"/>
<line y1="-8.30292" x2="111.2" y2="-8.30292" transform="matrix(-0.707138 0.707076 -0.707138 -0.707076 529.826 8.51465)" stroke="#B34A0A" stroke-width="16.6058"/>
<line y1="-8.30292" x2="77.0853" y2="-8.30292" transform="matrix(-8.74305e-08 -1 -1 8.74151e-08 361.765 91.7666)" stroke="#B34A0A" stroke-width="16.6058"/>
<line y1="-8.30292" x2="111.2" y2="-8.30292" transform="matrix(-0.707253 -0.706961 -0.707253 0.706961 625.414 100.128)" stroke="#B34A0A" stroke-width="16.6058"/>
<line x1="713.622" y1="14.2222" x2="631.236" y2="95.2548" stroke="#B34A0A" stroke-width="16.6058"/>
<line x1="719.423" y1="91.332" x2="719.423" y2="14.9452" stroke="#B34A0A" stroke-width="16.6058"/>
<line y1="-8.30292" x2="111.2" y2="-8.30292" transform="matrix(-0.707253 -0.706961 -0.707253 0.706961 283.131 97.9341)" stroke="#B34A0A" stroke-width="16.6058"/>
<line y1="-8.30292" x2="111.2" y2="-8.30292" transform="matrix(-0.707138 0.707076 -0.707138 -0.707076 361.765 8.51465)" stroke="#B34A0A" stroke-width="16.6058"/>
<line y1="-8.30292" x2="77.0853" y2="-8.30292" transform="matrix(-8.74305e-08 -1 -1 8.74151e-08 193.705 91.7666)" stroke="#B34A0A" stroke-width="16.6058"/>
<line y1="-8.30292" x2="111.2" y2="-8.30292" transform="matrix(-0.707253 -0.706961 -0.707253 0.706961 115.071 97.9341)" stroke="#B34A0A" stroke-width="16.6058"/>
<line y1="-8.30292" x2="111.2" y2="-8.30292" transform="matrix(-0.707138 0.707076 -0.707138 -0.707076 193.705 8.51465)" stroke="#B34A0A" stroke-width="16.6058"/>
<line y1="-8.30292" x2="77.0853" y2="-8.30292" transform="matrix(-8.74305e-08 -1 -1 8.74151e-08 25.6445 91.7666)" stroke="#B34A0A" stroke-width="16.6058"/>
<line y1="-8.30292" x2="111.2" y2="-8.30292" transform="matrix(-0.707138 0.707076 -0.707138 -0.707076 19.4767 8.51465)" stroke="#B34A0A" stroke-width="16.6058"/>
<ellipse rx="31.6077" ry="31.605" transform="matrix(-1 0 0 1 614.863 107.992)" fill="#B34A0A"/>
<ellipse rx="31.6077" ry="31.605" transform="matrix(-1 0 0 1 472.053 107.992)" fill="#B34A0A"/>
<rect x="335" y="120" width="410" height="120" fill="#B34A0A"/>
</g>
<line x1="543.184" y1="398.511" x2="988.184" y2="453.511" stroke="#FD9900" stroke-width="3"/>
<path d="M401.968 212.6H409.392V195.832H403.888V156.408H396.016V195.832H373.552V156.408H365.68V203H401.968V212.6ZM433.157 203.768C439.621 203.768 444.165 201.272 447.557 197.24L442.949 193.208C440.197 195.96 437.381 197.432 433.285 197.432C427.909 197.432 423.813 194.168 422.981 188.216H448.965C449.029 187.448 449.029 186.744 449.029 186.04C449.029 175.928 443.397 167.224 432.325 167.224C422.341 167.224 415.237 175.416 415.237 185.464V185.592C415.237 196.408 423.045 203.768 433.157 203.768ZM422.853 183.096C423.621 177.464 427.141 173.56 432.261 173.56C437.637 173.56 440.901 177.72 441.413 183.096H422.853ZM457.782 203H465.462V188.856H482.23V203H489.974V167.928H482.23V181.816H465.462V167.928H457.782V203ZM500.657 203H508.337V188.856H525.105V203H532.849V167.928H525.105V181.816H508.337V167.928H500.657V203ZM560.172 203.768C570.924 203.768 578.86 195.512 578.86 185.528V185.4C578.86 175.416 570.988 167.224 560.3 167.224C549.548 167.224 541.612 175.608 541.612 185.528V185.656C541.612 195.64 549.484 203.768 560.172 203.768ZM560.3 197.048C553.9 197.048 549.292 191.8 549.292 185.528V185.4C549.292 179.256 553.58 173.944 560.172 173.944C566.572 173.944 571.18 179.256 571.18 185.528V185.656C571.18 191.864 566.892 197.048 560.3 197.048ZM603.912 203.768C610.632 203.768 614.728 201.016 618.248 197.176L613.576 192.632C610.952 195.256 608.136 197.048 604.296 197.048C597.96 197.048 593.48 191.928 593.48 185.528V185.4C593.48 179.064 597.896 173.944 603.912 173.944C608.008 173.944 610.632 175.864 613.128 178.488L617.992 173.304C614.728 169.72 610.568 167.224 603.976 167.224C593.48 167.224 585.8 175.608 585.8 185.528V185.656C585.8 195.576 593.48 203.768 603.912 203.768ZM635.01 203H642.69V174.84H655.362V167.928H622.338V174.84H635.01V203ZM663.157 203H670.133L687.733 179.576V203H695.413V167.928H688.117L670.837 190.968V167.928H663.157V203ZM705.965 176.824H714.477V167.928H705.965V176.824ZM705.965 203H714.477V194.104H705.965V203Z" fill="white"/>
<defs>
<filter id="filter0_d" x="-261" y="0" width="1094.02" height="424.4" filterUnits="userSpaceOnUse" color-interpolation-filters="sRGB">
<feFlood flood-opacity="0" result="BackgroundImageFix"/>
<feColorMatrix in="SourceAlpha" type="matrix" values="0 0 0 0 0 0 0 0 0 0 0 0 0 0 0 0 0 0 127 0"/>
<feOffset dy="4"/>
<feGaussianBlur stdDeviation="2"/>
<feColorMatrix type="matrix" values="0 0 0 0 0 0 0 0 0 0 0 0 0 0 0 0 0 0 0.25 0"/>
<feBlend mode="normal" in2="BackgroundImageFix" result="effect1_dropShadow"/>
<feBlend mode="normal" in="SourceGraphic" in2="effect1_dropShadow" result="shape"/>
</filter>
</defs>
</svg>
